:SAMPLES-PER-SECOND 30
:FULLY-SPECIFIED
:DEGREES
232
root  34.81976366 36.52850474 -14.4959247 10.00655365 -4.090889454 4.967154026
lowerback  -7.814939976 -0.1557876021 -0.7341912389
upperback  -4.051569939 0.4486230016 -4.973130226
thorax  0.2248769999 0.4249028563 -4.705450058
lowerneck  -4.593319893 -15.94769955 -10.53549957
upperneck  8.775989532 -21.79560089 11.33530045
head  5.785152912 -10.40678883 3.328761816
lclavicle  0 -4.497500157e-015 -2.743230041e-014
lhumerus  -47.51639938 30.09480095 60.52320099
lradius  0.007358240429 -6.507048965e-006 28.87049866
lwrist  4.824992743e-007 -3.790274832e-007 -31.24839973
lhand  -0 -36.95500183 -10.71580029
lfingers  90 7.125020027 -90
lthumb  94.85060204 -25.54893905 101.1316801
rclavicle  0 -4.497500157e-015 -2.743230041e-014
rhumerus  28.19299889 -44.2983017 -26.34699821
rradius  -5.16745672e-007 2.214343908e-008 42.93320084
rwrist  -2.867388866e-005 0.02898991294 -166.2279968
rhand  -1.77019945e-031 4.147980213 -7.438509941
rfingers  -90 -7.125020027 -90
rthumb  -85.08195512 -8.596730262 -60.07312642
rfemur  -13.23380947 14.62242889 11.59740162
rtibia  -1.700986266 -2.115415096 21.00389099
rfoot  0.2609440386 -22.48923683 -35.35120773
rtoes  3.811304752 19.64810528 -101.2066107
lfemur  -6.934123993 -17.77873421 -22.85467529
ltibia  5.209144592 -1.207432389 11.17084217
lfoot  1.31970191 -21.72474289 37.00542068
ltoes  -8.668037606 -18.09373602 -116.1450233
233
root  34.81683205 36.5283095 -14.49780502 9.984828949 -4.144922733 4.97074604
lowerback  -7.841199875 -0.1533019245 -0.7400724292
upperback  -4.053309917 0.4523474276 -4.960149765
thorax  0.2378389984 0.4269833565 -4.688059807
lowerneck  -4.628359795 -15.92850018 -10.52820015
upperneck  8.830659866 -21.76669884 11.28859997
head  5.802156925 -10.39278984 3.317538261
lclavicle  0 -4.497500157e-015 -2.743230041e-014
lhumerus  -47.56409836 30.18659973 60.49219894
lradius  0.006442166399 -6.507048965e-006 28.85938644
lwrist  4.824992743e-007 -3.790274832e-007 -31.23920059
lhand  -4.417268239e-031 -36.9280014 -10.7748003
lfingers  90 7.125020027 -90
lthumb  94.85049181 -25.60776373 101.1081755
rclavicle  0 -4.497500157e-015 -2.743230041e-014
rhumerus  27.92850304 -44.43040085 -26.56400299
rradius  -5.16745672e-007 2.214343908e-008 43.54610062
rwrist  -2.867388866e-005 0.02848672681 -165.8359985
rhand  -1.77000414e-031 4.059869766 -7.365640163
rfingers  -90 -7.125020027 -90
rthumb  -85.06543446 -8.654237769 -60.15348924
rfemur  -13.2436285 14.68575001 11.59498405
rtibia  -1.703683496 -2.105766296 21.04479027
rfoot  0.2397861183 -22.49866867 -35.36817932
rtoes  3.803324631 19.64959266 -101.1828783
lfemur  -6.811999321 -17.77693558 -22.90554619
ltibia  5.279878616 -1.227122307 11.01712894
lfoot  1.302624226 -21.61520004 37.05374908
ltoes  -8.658249288 -18.09829998 -116.1135101
234
root  34.81242262 36.52856481 -14.49950811 9.975269318 -4.186023235 4.963101864
lowerback  -7.847499847 -0.1507985443 -0.7409861088
upperback  -4.051373005 0.4557955563 -4.956520081
thorax  0.2456510067 0.4290179908 -4.683479786
lowerneck  -4.645969868 -15.90310001 -10.5309
upperneck  8.845230103 -21.73119926 11.28530025
head  5.805319786 -10.375 3.319220066
lclavicle  0 -4.497500157e-015 -2.743230041e-014
lhumerus  -47.56269836 30.16530037 60.53480148
lradius  0.004122955725 -6.507048965e-006 28.86183739
lwrist  4.824992743e-007 -3.790274832e-007 -31.18090057
lhand  -4.419094784e-031 -36.95949936 -10.73480034
lfingers  90 7.125020027 -90
lthumb  94.85676144 -25.56741503 101.1382029
rclavicle  0 -4.497500157e-015 -2.743230041e-014
rhumerus  27.66880035 -44.76829529 -26.85569954
rradius  -5.16745672e-007 2.214343908e-008 44.15459824
rwrist  -2.867388866e-005 0.02798562869 -166.5919952
rhand  -1.769738713e-031 3.936939955 -7.353980064
rfingers  -90 -7.125020027 -90
rthumb  -85.08771204 -8.656589792 -60.27247766
rfemur  -13.24834728 14.68161964 11.60483837
rtibia  -1.695379257 -2.106609344 21.06429672
rfoot  0.2322167754 -22.54007149 -35.33731079
rtoes  3.807813538 19.64875639 -101.1962278
lfemur  -6.716589451 -17.77357483 -22.92954254
ltibia  5.339484692 -1.23233819 10.88568783
lfoot  1.295582175 -21.52970886 37.11462021
ltoes  -8.653079154 -18.10070802 -116.0968682
235
root  34.80877914 36.52842364 -14.50089732 9.956983566 -4.22341156 4.935575008
lowerback  -7.853139877 -0.1482505351 -0.7711743116
upperback  -4.04791975 0.4574500918 -4.955131054
thorax  0.2524339855 0.4313580096 -4.669159889
lowerneck  -4.703129768 -15.88910007 -10.50959969
upperneck  8.895999908 -21.71120071 11.26290035
head  5.823540211 -10.36209965 3.306539774
lclavicle  0 -4.497500157e-015 -2.743230041e-014
lhumerus  -47.57389832 30.13739967 60.57429886
lradius  -0.008087058552 -6.507048965e-006 28.88212013
lwrist  4.824992743e-007 -3.790274832e-007 -31.13339996
lhand  -4.417807257e-031 -36.93730164 -10.78250027
lfingers  90 7.125020027 -90
lthumb  94.85652206 -25.61495088 101.1188686
rclavicle  0 -4.497500157e-015 -2.743230041e-014
rhumerus  27.33040428 -44.98820114 -27.06080246
rradius  -5.16745672e-007 2.214343908e-008 44.94729996
rwrist  -2.867388866e-005 0.02748665772 -166.5780029
rhand  -1.769628806e-031 3.884890079 -7.297520161
rfingers  -90 -7.125020027 -90
rthumb  -85.07136118 -8.702283751 -60.31895978
rfemur  -13.22834206 14.71951199 11.63547897
rtibia  -1.682958841 -2.087080002 21.04320526
rfoot  0.2601531744 -22.52514267 -35.30190277
rtoes  3.850446632 19.64076271 -101.3230413
lfemur  -6.735151768 -17.75828171 -22.88500023
ltibia  5.307894707 -1.234317303 10.95096016
lfoot  1.307128429 -21.54596329 37.15550995
ltoes  -8.652077574 -18.10117431 -116.0936445
